<svg width="32" height="27" viewBox="0 0 32 27" fill="none" xmlns="http://www.w3.org/2000/svg">
<g id="Group">
<g id="Layer 1">
<path id="Vector" d="M27.5968 17.3241V17.2253C27.502 16.336 27.2767 15.6482 26.913 15.166C26.6996 14.8854 26.4269 14.6601 26.1028 14.502C26.0672 14.4862 26.0277 14.4704 25.9881 14.4506C25.9407 14.4269 25.8933 14.4111 25.8419 14.3913C25.4743 14.2569 25.0514 14.1897 24.5652 14.1897C24.2846 14.1897 24.0158 14.2134 23.7708 14.2609C23.7352 14.2648 23.6996 14.2727 23.664 14.2806C23.6166 14.2925 23.5692 14.3043 23.5257 14.3162C22.9723 14.4664 22.5375 14.747 22.2253 15.1621C21.9486 15.5296 21.747 16.0158 21.6285 16.6206C21.5336 17.087 21.4901 17.6206 21.4901 18.2253V21.9526C21.4901 22.0751 21.4862 22.2016 21.4783 22.3202C21.1858 23.9921 20.0119 25.3636 18.4585 25.9447L18.336 25.9921C18.2964 26.004 18.2569 26.0198 18.2213 26.0316C17.8854 26.1344 17.5296 26.2055 17.166 26.2332H17.1581C17.1186 26.2372 17.0791 26.2411 17.0395 26.2411C16.9565 26.2451 16.8775 26.249 16.7945 26.249C15.0909 26.249 13.5968 25.3518 12.7549 24.0079C12.585 23.6759 12.4427 23.3281 12.336 22.9644C12.336 22.9605 12.336 22.9565 12.336 22.9526C12.2451 22.6522 12.1818 22.3399 12.1423 22.0237C12.1107 21.7747 12.0909 21.5178 12.0909 21.2609V17.0198C12.0909 16.6561 12.0751 16.3123 12.0435 15.9921C12.0356 15.9012 12.0277 15.8142 12.0158 15.7312C11.9012 14.7866 11.6443 14.0553 11.249 13.5336C11.1383 13.3874 11.0119 13.253 10.8735 13.1344C10.7905 13.0593 10.6957 12.9921 10.6008 12.9328C10.0751 12.5929 9.40711 12.4229 8.58103 12.4229C8.48617 12.4229 8.39526 12.4229 8.30435 12.4308C8.2253 12.4348 8.14229 12.4427 8.06719 12.4466C7.10672 12.5415 6.38735 12.9012 5.91304 13.5336C5.35573 14.2727 5.0751 15.4387 5.0751 17.0198V26.2372H0V0H2.59684C3.96047 0 5.06719 1.10277 5.06719 2.4664V8.45455C5.06719 8.45455 5.20553 8.35178 5.47036 8.21344L5.48221 8.20553C5.51779 8.18577 5.56126 8.16601 5.60474 8.14625C5.96047 7.96047 6.34387 7.81028 6.75099 7.70356C7.31225 7.55336 7.92095 7.47826 8.57312 7.47826H8.75494C9.12253 7.48617 9.47826 7.50593 9.82213 7.54545C9.83399 7.54545 9.8419 7.54545 9.85375 7.54545C9.97233 7.55731 10.087 7.57312 10.2055 7.59289C10.3794 7.62055 10.5573 7.65217 10.7391 7.68775C10.9407 7.72727 11.1344 7.77866 11.3202 7.83004C11.3478 7.83794 11.3715 7.84585 11.3992 7.85376C11.4506 7.86561 11.502 7.88142 11.5494 7.89723C11.6443 7.9249 11.7391 7.95652 11.83 7.98814C11.8854 8.00395 11.9447 8.02372 11.996 8.04743C12.0632 8.06719 12.1304 8.09486 12.1976 8.12253C12.2095 8.12648 12.2213 8.13043 12.2292 8.13439C12.2451 8.13834 12.2609 8.14625 12.2767 8.1502C12.2767 8.1502 12.2806 8.15415 12.2846 8.15415C12.3518 8.18182 12.419 8.20949 12.4783 8.23715C12.4901 8.24111 12.502 8.24506 12.5099 8.25296C12.5296 8.26087 12.5494 8.26877 12.5652 8.27668C12.7352 8.35573 12.9012 8.43874 13.0553 8.52174C13.0711 8.52964 13.087 8.5415 13.1067 8.55336C13.17 8.58893 13.2332 8.62451 13.2925 8.66008C13.4506 8.75494 13.6047 8.85376 13.7589 8.96443C13.8854 9.05534 14.0119 9.1502 14.1344 9.25296C14.1818 9.28854 14.2253 9.32411 14.2688 9.35968C14.4545 9.51779 14.6364 9.68379 14.8103 9.86561C15.1423 10.2055 15.4387 10.5771 15.6996 10.9921C15.6996 10.9921 15.6996 10.996 15.6996 11C16.253 11.8775 16.6482 12.917 16.8854 14.1146C16.9605 14.502 17.0198 14.9091 17.0632 15.332C17.1107 15.7826 17.1344 16.253 17.1423 16.7431V16.7747C17.1423 16.7747 17.1423 16.7549 17.1462 16.747C17.1462 16.747 17.1462 16.7312 17.1502 16.7273C17.1502 16.7115 17.1581 16.6798 17.166 16.6364C17.1937 16.498 17.2253 16.3597 17.2609 16.2253C17.2767 16.1542 17.2964 16.087 17.3162 16.0158C17.3439 15.9091 17.3755 15.7945 17.419 15.6719C17.4308 15.6324 17.4466 15.5889 17.4585 15.5455C17.4704 15.498 17.4862 15.4506 17.5059 15.4032C17.5375 15.3162 17.5692 15.2253 17.6047 15.1344C17.6206 15.087 17.6403 15.0395 17.6601 14.9881C17.7154 14.8498 17.7747 14.7154 17.834 14.581C17.834 14.5731 17.834 14.5692 17.834 14.5652C17.834 14.5652 17.834 14.5613 17.834 14.5573C17.834 14.5534 17.8379 14.5494 17.8419 14.5494C17.8498 14.5296 17.8617 14.502 17.8735 14.4822C17.8735 14.4743 17.8814 14.4664 17.8854 14.4545C18.0435 14.087 18.2292 13.7312 18.4348 13.4269C18.4348 13.419 18.4387 13.415 18.4466 13.4111C18.6126 13.1423 18.7984 12.8735 19.0079 12.6166C19.1107 12.4862 19.2213 12.3557 19.332 12.2292C19.9051 11.6047 20.6087 11.0593 21.4783 10.6917C21.4783 10.6917 21.4862 10.6838 21.5099 10.668C21.5138 10.6601 21.5217 10.6561 21.5296 10.6522C21.5573 10.6364 21.581 10.6206 21.6047 10.6047C21.6166 10.5968 21.6245 10.5929 21.6364 10.585C21.668 10.5652 21.6996 10.5455 21.7431 10.5217C21.7984 10.4901 21.8617 10.4585 21.9328 10.4229C21.9644 10.4071 21.996 10.3913 22.0316 10.3755C22.2174 10.2806 22.4071 10.2055 22.6087 10.1383C22.6561 10.1225 22.7036 10.1067 22.751 10.0909C22.8379 10.0632 22.9249 10.0395 23.0158 10.0198C23.0711 10.004 23.1304 9.98814 23.1897 9.98024C23.2806 9.96047 23.3715 9.94071 23.4625 9.9249C23.5257 9.917 23.5968 9.90514 23.664 9.89723C23.664 9.89723 23.6719 9.89723 23.6798 9.89723C23.7115 9.89328 23.7391 9.88933 23.7708 9.88538C23.8063 9.88142 23.8458 9.87747 23.8854 9.87352C23.9802 9.86166 24.0711 9.85771 24.166 9.8498C24.2292 9.8498 24.2925 9.8419 24.3557 9.8419C24.4229 9.83794 24.4901 9.83794 24.5573 9.83794H24.6403C24.7273 9.83794 24.8103 9.83794 24.8972 9.84585H24.9209C25.2292 9.85771 25.5257 9.87747 25.8182 9.917C25.834 9.917 25.8498 9.92095 25.8656 9.9249C25.8775 9.9249 25.8933 9.9249 25.9012 9.92885C25.9328 9.93281 25.9605 9.93676 25.9921 9.94071C26.0672 9.95257 26.1462 9.96047 26.2253 9.97628C26.3043 9.98814 26.3834 10.004 26.4624 10.0237C26.7628 10.087 27.0474 10.166 27.3123 10.249C27.4032 10.2767 27.4862 10.3083 27.5692 10.3399C27.6324 10.3636 27.6957 10.3874 27.7589 10.415C27.8379 10.4466 27.917 10.4783 27.996 10.5138C28.0435 10.5375 28.0909 10.5573 28.1383 10.585C28.1937 10.6126 28.2451 10.6364 28.3004 10.664C28.3953 10.7115 28.4822 10.7668 28.5692 10.8142C28.6601 10.8656 28.747 10.913 28.8221 10.9605C29.0435 11.0988 29.249 11.249 29.4506 11.4111C29.6522 11.5771 29.8458 11.751 30.0316 11.9407C30.2332 12.1462 30.415 12.3636 30.581 12.5968C30.581 12.5968 30.5823 12.5982 30.585 12.6008C30.664 12.7036 30.7352 12.8142 30.8103 12.9289C30.8142 12.9289 30.8142 12.9328 30.8182 12.9368C30.83 12.9565 30.8458 12.9842 30.8577 13C30.8696 13.0237 30.8854 13.0474 30.8972 13.0711C30.9249 13.1186 30.9526 13.166 30.9802 13.2134C31.0356 13.3083 31.083 13.4071 31.1344 13.5059C31.1858 13.6047 31.2332 13.7075 31.2767 13.8063C31.3241 13.9091 31.3676 14.0158 31.4111 14.1186C31.4506 14.2253 31.4901 14.336 31.5296 14.4466C31.5692 14.5573 31.6047 14.668 31.6364 14.7826C31.6719 14.9012 31.6996 15.0158 31.7312 15.1344C31.7628 15.253 31.7905 15.3755 31.8142 15.4941C31.9091 15.9684 31.9605 16.4387 31.9842 16.917C31.9921 17.0514 31.996 17.1858 32 17.3202H27.5771L27.5968 17.3241Z" fill="#00B1FF"/>
<path id="Vector_2" style="mix-blend-mode:multiply" d="M15.7036 11.0118C15.6364 10.9802 14.1423 10.2529 12.0395 9.85371C9.70356 9.41102 6.62451 9.36754 3.9249 11.1343C2.43874 12.1106 1.07115 13.6284 0 15.9288C0 15.9288 0 15.9288 0 15.9328C0 15.9328 0 15.9249 0 15.9169C0.00790514 15.8814 0.0197628 15.7786 0.0513834 15.6245C0.0592885 15.5889 0.0671937 15.5494 0.0790514 15.5059C0.118577 15.3162 0.173913 15.0632 0.256917 14.7747C0.371541 14.3636 0.525692 13.8656 0.743083 13.328C0.754941 13.3003 0.766798 13.2766 0.774704 13.249C1.34783 11.5256 2.57312 10.0118 4.09881 8.98019C4.41107 8.7707 4.73518 8.57703 5.07115 8.40707C5.20553 8.33987 5.33992 8.27663 5.47431 8.21735L5.48617 8.20944C5.79051 8.07505 6.09881 7.96043 6.41107 7.86952C7.18182 7.63632 7.99209 7.51774 8.80237 7.50588C9.14229 7.49798 9.48617 7.51379 9.82213 7.55331C9.83399 7.55331 9.8419 7.55331 9.85375 7.55331C10.4348 7.6126 11.0119 7.73118 11.5692 7.90509C11.5771 7.90509 11.585 7.90904 11.5929 7.913C11.664 7.93671 11.7352 7.96438 11.8103 7.9881C11.8182 7.9881 11.8261 7.99205 11.834 7.996C11.8893 8.01181 11.9486 8.03157 12 8.05529C12.0672 8.07505 12.1344 8.10272 12.2016 8.13039C12.3043 8.16991 12.4071 8.21339 12.5099 8.26478C12.7154 8.35568 12.913 8.4545 13.1067 8.56517C13.17 8.60074 13.2332 8.63632 13.2925 8.67189C13.5217 8.80628 13.7391 8.94857 13.9526 9.11063C14.0711 9.20153 14.1897 9.29244 14.3083 9.39126C14.8577 9.84185 15.3794 10.3873 15.6957 11.0079C15.6957 11.0079 15.6957 11.0118 15.6957 11.0158L15.7036 11.0118Z" fill="url(#paint0_linear_4335_2749)"/>
<path id="Vector_3" style="mix-blend-mode:multiply" d="M17.1704 22.2603C17.202 21.699 17.1546 21.2761 17.1546 21.2761V16.7583C17.1546 16.7583 17.5143 14.288 19.3404 12.2326C20.4036 11.039 21.8819 9.67928 24.9293 9.84134C27.9767 10.0034 29.4668 11.4105 29.4668 11.4105C24.8542 9.84529 22.0992 11.0824 20.4945 12.7109C19.1348 14.0864 18.4352 15.9836 18.4629 17.9164C18.5024 20.6239 18.5696 25.9046 18.451 25.952C17.6052 26.2722 17.2336 26.2484 17.1625 26.2405V26.2643C17.1625 26.2643 15.0241 26.5291 13.2969 24.7346C13.4115 24.7781 17.1625 26.2129 17.1625 23.0627" fill="url(#paint1_linear_4335_2749)"/>
<g id="Group_2">
<path id="Vector_4" d="M24.8901 8.64742C26.523 8.64742 27.8466 7.32374 27.8466 5.6909C27.8466 4.05805 26.523 2.73438 24.8901 2.73438C23.2573 2.73438 21.9336 4.05805 21.9336 5.6909C21.9336 7.32374 23.2573 8.64742 24.8901 8.64742Z" fill="#FFCE00"/>
<path id="Vector_5" style="mix-blend-mode:multiply" d="M24.8901 8.64742C26.523 8.64742 27.8466 7.32374 27.8466 5.6909C27.8466 4.05805 26.523 2.73438 24.8901 2.73438C23.2573 2.73438 21.9336 4.05805 21.9336 5.6909C21.9336 7.32374 23.2573 8.64742 24.8901 8.64742Z" fill="url(#paint2_linear_4335_2749)"/>
</g>
<g id="Group_3">
<path id="Vector_6" d="M9.82994 6.44503C11.4802 6.44503 12.8181 5.1072 12.8181 3.45689C12.8181 1.80659 11.4802 0.46875 9.82994 0.46875C8.17963 0.46875 6.8418 1.80659 6.8418 3.45689C6.8418 5.1072 8.17963 6.44503 9.82994 6.44503Z" fill="#FFCE00"/>
<path id="Vector_7" style="mix-blend-mode:multiply" d="M9.82994 6.44503C11.4802 6.44503 12.8181 5.1072 12.8181 3.45689C12.8181 1.80659 11.4802 0.46875 9.82994 0.46875C8.17963 0.46875 6.8418 1.80659 6.8418 3.45689C6.8418 5.1072 8.17963 6.44503 9.82994 6.44503Z" fill="url(#paint3_linear_4335_2749)"/>
</g>
</g>
</g>
<defs>
<linearGradient id="paint0_linear_4335_2749" x1="-0.798419" y1="14.0592" x2="66.2134" y2="-12.1344" gradientUnits="userSpaceOnUse">
<stop stop-color="white"/>
<stop offset="1" stop-color="#003B94"/>
</linearGradient>
<linearGradient id="paint1_linear_4335_2749" x1="19.1981" y1="29.9678" x2="47.3166" y2="-123.107" gradientUnits="userSpaceOnUse">
<stop stop-color="white"/>
<stop offset="0.09" stop-color="#E9EEF6"/>
<stop offset="1" stop-color="#003B94"/>
</linearGradient>
<linearGradient id="paint2_linear_4335_2749" x1="21.9336" y1="5.6909" x2="27.8506" y2="5.6909" gradientUnits="userSpaceOnUse">
<stop stop-color="white"/>
<stop offset="1" stop-color="#FFC53F"/>
</linearGradient>
<linearGradient id="paint3_linear_4335_2749" x1="6.8418" y1="3.45689" x2="12.8141" y2="3.45689" gradientUnits="userSpaceOnUse">
<stop stop-color="white"/>
<stop offset="1" stop-color="#FFC53F"/>
</linearGradient>
</defs>
</svg>
