<svg xmlns="http://www.w3.org/2000/svg" width="146" height="44" viewBox="0 0 146 44" fill="none">
  <g clip-path="url(#clip0_4692_26942)">
    <path d="M18.6899 23.6967C17.7535 22.7482 16.6636 22.0781 15.4163 21.6866C14.1691 21.299 12.6271 20.9479 10.7946 20.6371C9.23647 20.3868 8.09818 20.1244 7.38372 19.8419C6.66523 19.5634 6.30598 19.1395 6.30598 18.5785C6.30598 17.9568 6.64101 17.4402 7.31107 17.0365C7.98113 16.6329 8.81264 16.431 9.80966 16.431C10.8067 16.431 11.731 16.649 12.498 17.0849C13.2609 17.5209 13.6443 18.0658 13.6443 18.7238H19.4367C19.4367 16.3261 18.5487 14.4491 16.7726 13.0929C14.9966 11.7366 12.7079 11.0625 9.9025 11.0625C8.09818 11.0625 6.4634 11.3652 4.99412 11.9747C3.53291 12.5802 2.3704 13.4238 1.51466 14.4976C0.658925 15.5713 0.231057 16.7782 0.231057 18.1183C0.231057 19.8661 0.675071 21.2102 1.5631 22.1588C2.45113 23.1114 3.50062 23.7815 4.7156 24.169C5.93059 24.5565 7.45638 24.9077 9.29702 25.2225C10.9479 25.501 12.1468 25.7836 12.8935 26.0621C13.6403 26.3406 14.0157 26.825 14.0157 27.5072C14.0157 28.1893 13.6807 28.6979 13.0106 29.1218C12.3405 29.5416 11.396 29.7515 10.181 29.7515C8.90548 29.7515 7.85196 29.5174 7.02851 29.0491C6.20103 28.5809 5.78931 27.9754 5.78931 27.2287H0.000976562C0.000976562 28.9119 0.461137 30.3529 1.38146 31.5517C2.30178 32.7506 3.5208 33.6548 5.05063 34.2643C6.57643 34.8697 8.23946 35.1765 10.0478 35.1765C13.0671 35.1765 15.5052 34.5468 17.3579 33.2834C19.2147 32.02 20.1229 30.143 20.0906 27.6525C20.0906 25.9693 19.6264 24.6534 18.6899 23.7048V23.6967Z" fill="#004A87"/>
    <path d="M44.6926 17.061C43.6189 15.2042 42.1537 13.743 40.305 12.6693C38.4482 11.5956 36.434 11.0547 34.2543 11.0547C32.0746 11.0547 30.0563 11.5915 28.2036 12.6693C26.3508 13.743 24.8856 15.2082 23.8119 17.061C22.7382 18.9137 22.1973 20.932 22.1973 23.1117C22.1973 25.2914 22.7341 27.3097 23.8119 29.1624C24.8856 31.0192 26.3508 32.4804 28.2036 33.5541C30.0563 34.6278 32.0746 35.1687 34.2543 35.1687C36.434 35.1687 38.4522 34.6319 40.305 33.5541C42.1577 32.4804 43.6189 31.0152 44.6926 29.1624C45.7704 27.3097 46.3072 25.2914 46.3072 23.1117C46.3072 20.932 45.7704 18.9137 44.6926 17.061ZM38.5491 27.4792C37.427 28.6457 36.0101 29.231 34.2987 29.231C32.5872 29.231 31.1502 28.6457 29.9998 27.4792C28.8494 26.3086 28.2722 24.8555 28.2722 23.1077C28.2722 21.3599 28.8494 19.9108 29.9998 18.7402C31.1542 17.5736 32.5872 16.9883 34.2987 16.9883C36.0101 16.9883 37.431 17.5736 38.5491 18.7402C39.6712 19.9108 40.2323 21.3639 40.2323 23.1077C40.2323 24.8514 39.6712 26.3086 38.5491 27.4792Z" fill="#004A87"/>
    <path d="M57.8487 8.86386C58.6278 8.24224 59.6046 7.91125 60.7913 7.883V1.94531C57.7075 1.94531 55.3017 2.7849 53.5741 4.46812C51.8424 6.1473 50.8535 8.47232 50.6073 11.427H47.0107V17.3607H50.5144V34.7903H56.5893V17.3607H60.7954V11.427H56.6822C56.6822 10.3372 57.0697 9.48145 57.8528 8.85983L57.8487 8.86386Z" fill="#004A87"/>
    <path d="M76.21 17.3665V11.4329H72.0039V4.80497C72.0039 3.32761 70.8091 2.13281 69.3318 2.13281H65.929V11.4289H62.4697V17.3625H65.929V23.7644C65.929 27.5345 66.8534 30.3398 68.7101 32.1724C70.5629 34.013 73.0615 34.9293 76.21 34.9293V28.9957C74.7124 28.9957 73.6387 28.592 72.9888 27.7807C72.3349 26.9734 72.008 25.6333 72.008 23.7644V17.3625H76.214L76.21 17.3665Z" fill="#004A87"/>
    <path d="M93.8413 11.0547V23.3418C93.8413 25.243 93.5023 26.6396 92.8363 27.5236C92.1662 28.4116 91.1006 28.8556 89.6353 28.8556C88.1701 28.8556 87.1044 28.4116 86.4384 27.5236C85.7683 26.6356 85.4333 25.243 85.4333 23.3418V11.0547H79.3584V23.3418C79.3584 27.1442 80.2908 29.998 82.1638 31.9153C84.0327 33.8286 86.5232 34.7893 89.6393 34.7893C91.0723 34.7893 92.4609 34.5108 93.7969 33.9497V34.091C93.7969 35.2414 93.4538 36.1536 92.7676 36.8237C92.0814 37.4937 91.04 37.8288 89.6353 37.8288C88.824 37.8288 88.1822 37.6915 87.6978 37.409C87.2174 37.1304 86.7411 36.7106 86.2729 36.1496H79.4997C80.3433 38.4867 81.643 40.3395 83.403 41.7078C85.1629 43.0762 87.2417 43.7624 89.6393 43.7624C91.6011 43.7624 93.361 43.3022 94.9191 42.3819C96.4731 41.4616 97.7002 40.2022 98.5842 38.5997C99.4722 36.9932 99.9163 35.2091 99.9163 33.2473V11.0547H93.8413Z" fill="#004A87"/>
    <path d="M139.934 23.4575V23.3324C139.817 22.2062 139.531 21.3383 139.067 20.7288C138.796 20.3696 138.453 20.087 138.041 19.8892C137.993 19.869 137.944 19.8489 137.9 19.8246C137.839 19.7964 137.779 19.7722 137.714 19.752C137.25 19.5825 136.713 19.4977 136.096 19.4977C135.736 19.4977 135.401 19.5259 135.091 19.5865C135.042 19.5905 135.002 19.6026 134.953 19.6107C134.893 19.6269 134.836 19.639 134.776 19.6591C134.073 19.8489 133.528 20.2081 133.133 20.7329C132.782 21.1971 132.527 21.8146 132.378 22.5816C132.261 23.1709 132.2 23.845 132.2 24.616V29.3346C132.2 29.492 132.196 29.6495 132.184 29.8029C131.813 31.922 130.332 33.6577 128.362 34.3923L128.204 34.4529C128.156 34.469 128.103 34.4892 128.059 34.5013C127.631 34.6345 127.183 34.7233 126.723 34.7556H126.715C126.666 34.7597 126.614 34.7637 126.565 34.7677C126.461 34.7718 126.36 34.7758 126.255 34.7758C124.099 34.7758 122.206 33.6416 121.144 31.9382C120.927 31.5184 120.753 31.0784 120.616 30.6182C120.616 30.6142 120.616 30.6102 120.616 30.6061C120.503 30.2267 120.422 29.8351 120.369 29.4315C120.329 29.1167 120.305 28.7937 120.305 28.4668V23.1023C120.305 22.6421 120.285 22.2062 120.248 21.8025C120.236 21.6895 120.228 21.5805 120.212 21.4715C120.067 20.2767 119.74 19.3524 119.243 18.6864C119.102 18.5007 118.945 18.3271 118.767 18.1818C118.658 18.089 118.545 18.0042 118.424 17.9275C117.762 17.4996 116.91 17.2857 115.865 17.2857C115.748 17.2857 115.627 17.2857 115.514 17.2938C115.413 17.2978 115.312 17.3059 115.211 17.3139C113.996 17.431 113.084 17.8912 112.482 18.6904C111.776 19.6269 111.425 21.1002 111.425 23.1063V34.7718H105.015V1.53125H108.3C110.024 1.53125 111.425 2.92788 111.425 4.65146V12.232C111.425 12.232 111.598 12.1028 111.933 11.9252L111.949 11.9172C111.998 11.8929 112.05 11.8687 112.103 11.8405C112.555 11.6023 113.039 11.4166 113.556 11.2834C114.266 11.0937 115.037 11.0009 115.865 11.0009H116.095C116.559 11.0089 117.007 11.0372 117.447 11.0856C117.459 11.0856 117.475 11.0856 117.487 11.0856C117.637 11.1018 117.786 11.122 117.931 11.1421C118.153 11.1744 118.375 11.2148 118.61 11.2632C118.864 11.3157 119.11 11.3763 119.348 11.4449C119.381 11.453 119.413 11.4651 119.449 11.4731C119.514 11.4893 119.578 11.5095 119.643 11.5296C119.764 11.566 119.881 11.6023 119.998 11.6467C120.071 11.6669 120.139 11.6951 120.208 11.7194C120.293 11.7476 120.378 11.7799 120.462 11.8162C120.474 11.8203 120.491 11.8283 120.503 11.8283C120.523 11.8324 120.543 11.8405 120.559 11.8485C120.559 11.8485 120.563 11.8526 120.567 11.8526C120.652 11.8889 120.737 11.9252 120.813 11.9616C120.826 11.9656 120.842 11.9737 120.854 11.9817C120.878 11.9898 120.902 12.0019 120.927 12.01C121.144 12.1109 121.35 12.2118 121.548 12.3208C121.568 12.3329 121.588 12.345 121.613 12.3612C121.693 12.4056 121.774 12.45 121.851 12.4984C122.053 12.6195 122.246 12.7446 122.44 12.8819C122.602 12.9989 122.763 13.12 122.917 13.2492C122.973 13.2936 123.03 13.338 123.086 13.3864C123.324 13.5842 123.554 13.7982 123.772 14.0282C124.192 14.4601 124.567 14.9284 124.898 15.4531C124.898 15.4531 124.898 15.4572 124.898 15.4612C125.601 16.5712 126.101 17.8871 126.4 19.4048C126.497 19.8973 126.57 20.4099 126.626 20.9468C126.683 21.5159 126.715 22.1093 126.727 22.7309V22.7713C126.727 22.7713 126.727 22.7471 126.731 22.735C126.731 22.735 126.731 22.7148 126.735 22.7107C126.735 22.6906 126.743 22.6502 126.755 22.5937C126.787 22.4161 126.828 22.2425 126.872 22.073C126.892 21.9842 126.917 21.8954 126.941 21.8106C126.977 21.6774 127.018 21.5321 127.07 21.3747C127.086 21.3222 127.102 21.2657 127.123 21.2132C127.139 21.1567 127.159 21.0961 127.179 21.0356C127.219 20.9266 127.26 20.8136 127.304 20.6965C127.324 20.636 127.353 20.5754 127.377 20.5108C127.445 20.3373 127.518 20.1677 127.599 19.9942C127.599 19.9861 127.599 19.9821 127.599 19.974C127.599 19.974 127.599 19.97 127.599 19.9659C127.599 19.9619 127.603 19.9578 127.607 19.9538C127.619 19.9256 127.631 19.8973 127.647 19.869C127.647 19.8569 127.655 19.8489 127.663 19.8327C127.861 19.3685 128.099 18.9164 128.358 18.533C128.358 18.5249 128.362 18.5209 128.37 18.5128C128.58 18.1737 128.814 17.8347 129.08 17.5077C129.213 17.3422 129.351 17.1767 129.492 17.0152C130.214 16.2241 131.107 15.5338 132.209 15.0697C132.209 15.0697 132.217 15.0575 132.249 15.0414C132.253 15.0333 132.261 15.0293 132.273 15.0212C132.305 15.001 132.338 14.9809 132.37 14.9607C132.382 14.9526 132.394 14.9486 132.41 14.9364C132.451 14.9122 132.491 14.888 132.544 14.8557C132.612 14.8154 132.693 14.775 132.786 14.7306C132.826 14.7104 132.866 14.6902 132.911 14.67C133.145 14.553 133.387 14.4521 133.641 14.3673C133.702 14.3471 133.763 14.3269 133.823 14.3068C133.932 14.2745 134.045 14.2422 134.154 14.218C134.227 14.1978 134.295 14.1776 134.376 14.1655C134.489 14.1372 134.606 14.117 134.723 14.0969C134.804 14.0847 134.893 14.0726 134.978 14.0605C134.978 14.0605 134.99 14.0605 134.998 14.0605C135.038 14.0565 135.074 14.0484 135.115 14.0444C135.163 14.0403 135.212 14.0323 135.256 14.0323C135.373 14.0202 135.494 14.0121 135.615 14.004C135.696 14.004 135.777 13.9959 135.858 13.9959C135.942 13.9919 136.027 13.9919 136.112 13.9919H136.217C136.326 13.9919 136.435 13.9919 136.54 14H136.572C136.963 14.0121 137.339 14.0403 137.706 14.0888C137.726 14.0888 137.747 14.0928 137.767 14.0969C137.783 14.0969 137.799 14.0969 137.815 14.1009C137.856 14.1049 137.888 14.113 137.928 14.117C138.025 14.1291 138.122 14.1453 138.227 14.1655C138.328 14.1816 138.425 14.2018 138.526 14.222C138.909 14.3027 139.264 14.3996 139.599 14.5086C139.712 14.5409 139.821 14.5812 139.926 14.6256C140.007 14.6539 140.088 14.6862 140.164 14.7185C140.265 14.7588 140.366 14.7992 140.467 14.8436C140.524 14.8719 140.584 14.9001 140.649 14.9324C140.721 14.9647 140.786 14.997 140.855 15.0333C140.972 15.0939 141.085 15.1625 141.194 15.2271C141.311 15.2917 141.416 15.3522 141.513 15.4128C141.791 15.5863 142.054 15.7801 142.308 15.9859C142.562 16.1958 142.808 16.4178 143.042 16.656C143.297 16.9143 143.527 17.1929 143.737 17.4875C143.737 17.4875 143.738 17.4889 143.741 17.4915C143.842 17.6248 143.935 17.762 144.023 17.9073C144.027 17.9073 144.027 17.9113 144.031 17.9194C144.044 17.9477 144.068 17.9759 144.084 18.0001C144.1 18.0284 144.12 18.0567 144.136 18.089C144.173 18.1495 144.209 18.206 144.241 18.2666C144.31 18.3877 144.375 18.5128 144.435 18.6339C144.5 18.759 144.56 18.8882 144.617 19.0133C144.673 19.1465 144.73 19.2757 144.786 19.4089C144.839 19.5461 144.887 19.6834 144.936 19.8246C144.984 19.9659 145.028 20.1032 145.073 20.2485C145.117 20.3978 145.154 20.5431 145.194 20.6925C145.234 20.8418 145.267 20.9993 145.303 21.1486C145.424 21.7501 145.489 22.3434 145.521 22.9489C145.529 23.1184 145.533 23.288 145.541 23.4615H139.942L139.934 23.4575Z" fill="#00B1FF"/>
    <path d="M145.96 35.8203V35.852H145.996C145.996 35.852 145.968 35.8322 145.96 35.8203Z" fill="#00919F"/>
    <path style="mix-blend-mode:multiply" d="M124.881 15.4694C124.797 15.429 122.904 14.5087 120.244 14.0081C117.289 13.4471 113.394 13.3946 109.975 15.6268C108.094 16.8579 106.362 18.7833 105.01 21.6896C105.01 21.6896 105.01 21.6896 105.01 21.6936C105.01 21.6936 105.01 21.6856 105.01 21.6735C105.018 21.625 105.038 21.4958 105.074 21.3021C105.086 21.2577 105.095 21.2093 105.107 21.1527C105.155 20.9106 105.228 20.5957 105.329 20.2243C105.47 19.7036 105.668 19.0739 105.942 18.3918C105.954 18.3595 105.97 18.3272 105.983 18.2909C106.705 16.1112 108.255 14.1938 110.189 12.886C110.58 12.6196 110.996 12.3774 111.42 12.1635C111.589 12.0787 111.759 11.998 111.928 11.9253L111.944 11.9172C112.328 11.7477 112.719 11.6024 113.115 11.4853C114.092 11.1907 115.113 11.0413 116.142 11.0252C116.574 11.0171 117.006 11.0373 117.434 11.0817C117.446 11.0817 117.462 11.0817 117.474 11.0817C118.213 11.1543 118.936 11.3077 119.646 11.5257C119.658 11.5257 119.666 11.5297 119.674 11.5378C119.767 11.5661 119.856 11.6024 119.949 11.6347C119.957 11.6347 119.969 11.6428 119.977 11.6428C120.05 11.6629 120.118 11.6912 120.187 11.7154C120.272 11.7437 120.357 11.776 120.441 11.8123C120.574 11.8648 120.704 11.9213 120.833 11.9818C121.091 12.0989 121.345 12.224 121.588 12.3613C121.668 12.4057 121.749 12.4501 121.826 12.4985C122.116 12.668 122.391 12.8497 122.661 13.0515C122.811 13.1645 122.964 13.2816 123.113 13.4067C123.808 13.9799 124.466 14.6661 124.869 15.4532C124.869 15.4532 124.869 15.4573 124.869 15.4613L124.881 15.4694Z" fill="url(#paint0_linear_4692_26942)"/>
    <path style="mix-blend-mode:multiply" d="M105.01 1.53125V21.851C105.01 21.851 105.393 19.4735 106.196 18.1899L106.12 1.77748L105.014 1.53125H105.01Z" fill="url(#paint1_linear_4692_26942)"/>
    <path style="mix-blend-mode:multiply" d="M126.735 29.7075C126.775 28.9971 126.715 28.4642 126.715 28.4642V22.7486C126.715 22.7486 127.171 19.6243 129.48 17.0208C130.824 15.5071 132.697 13.7876 136.552 13.9934C140.407 14.1993 142.296 15.9794 142.296 15.9794C136.459 13.9974 132.971 15.5636 130.941 17.6222C129.221 19.3619 128.333 21.7596 128.374 24.2098C128.426 27.6368 128.507 34.3212 128.362 34.3777C127.288 34.7814 126.82 34.7531 126.731 34.741V34.7692C126.731 34.7692 124.027 35.1043 121.843 32.8317C121.988 32.8882 126.731 34.7047 126.735 30.7126" fill="url(#paint2_linear_4692_26942)"/>
    <path d="M136.548 11.5858C139.02 11.5858 141.024 9.58157 141.024 7.10928C141.024 4.637 139.02 2.63281 136.548 2.63281C134.075 2.63281 132.071 4.637 132.071 7.10928C132.071 9.58157 134.075 11.5858 136.548 11.5858Z" fill="#FFCE00"/>
    <path style="mix-blend-mode:multiply" d="M136.548 11.5858C139.02 11.5858 141.024 9.58157 141.024 7.10928C141.024 4.637 139.02 2.63281 136.548 2.63281C134.075 2.63281 132.071 4.637 132.071 7.10928C132.071 9.58157 134.075 11.5858 136.548 11.5858Z" fill="url(#paint3_linear_4692_26942)"/>
    <path d="M118.024 9.05737C120.521 9.05737 122.545 7.03331 122.545 4.5365C122.545 2.03969 120.521 0.015625 118.024 0.015625C115.527 0.015625 113.503 2.03969 113.503 4.5365C113.503 7.03331 115.527 9.05737 118.024 9.05737Z" fill="#FFCE00"/>
    <path style="mix-blend-mode:multiply" d="M118.024 9.05737C120.521 9.05737 122.545 7.03331 122.545 4.5365C122.545 2.03969 120.521 0.015625 118.024 0.015625C115.527 0.015625 113.503 2.03969 113.503 4.5365C113.503 7.03331 115.527 9.05737 118.024 9.05737Z" fill="url(#paint4_linear_4692_26942)"/>
  </g>
  <defs>
    <linearGradient id="paint0_linear_4692_26942" x1="103.997" y1="19.3242" x2="188.803" y2="-13.8235" gradientUnits="userSpaceOnUse">
      <stop stop-color="white"/>
      <stop offset="1" stop-color="#003B94"/>
    </linearGradient>
    <linearGradient id="paint1_linear_4692_26942" x1="98.0105" y1="16.5712" x2="148.81" y2="-18.8369" gradientUnits="userSpaceOnUse">
      <stop stop-color="white"/>
      <stop offset="1" stop-color="#003B94"/>
    </linearGradient>
    <linearGradient id="paint2_linear_4692_26942" x1="129.302" y1="39.4637" x2="164.892" y2="-154.256" gradientUnits="userSpaceOnUse">
      <stop stop-color="white"/>
      <stop offset="0.09" stop-color="#E9EEF6"/>
      <stop offset="1" stop-color="#003B94"/>
    </linearGradient>
    <linearGradient id="paint3_linear_4692_26942" x1="132.067" y1="7.10928" x2="141.024" y2="7.10928" gradientUnits="userSpaceOnUse">
      <stop stop-color="white"/>
      <stop offset="1" stop-color="#FFC53F"/>
    </linearGradient>
    <linearGradient id="paint4_linear_4692_26942" x1="113.499" y1="4.5365" x2="122.545" y2="4.5365" gradientUnits="userSpaceOnUse">
      <stop stop-color="white"/>
      <stop offset="1" stop-color="#FFC53F"/>
    </linearGradient>
    <clipPath id="clip0_4692_26942">
      <rect width="146" height="43.7475" fill="white"/>
    </clipPath>
  </defs>
</svg>